<svg xmlns="http://www.w3.org/2000/svg" xmlns:xlink="http://www.w3.org/1999/xlink" width="200" height="40" viewBox="0 0 300 45" xmlns:v="https://vecta.io/nano"><style><![CDATA[.G{overflow:visible}.H{stroke:none}]]></style><defs><symbol id="A" class="G"><path d="M15.102.352a13.44 13.44 0 0 0 11.949-7.223l-4.988-2.586c-1.27 2.496-3.852 4.16-6.961 4.16-4.422 0-7.793-3.414-7.793-7.836s3.371-7.836 7.793-7.836c3.109 0 5.691 1.664 6.961 4.16l4.988-2.582a13.44 13.44 0 0 0-11.949-7.223 13.49 13.49 0 0 0-13.48 13.48A13.49 13.49 0 0 0 15.102.352zm0 0" class="H"/></symbol><symbol id="B" class="G"><path d="M22.105-4.551c-.742 0-1.531-.266-1.531-1.707v-11.25h-5.559v1.531c-1.316-1.184-2.977-1.883-4.992-1.883-4.859 0-8.668 4.027-8.668 9.105S5.164.352 10.023.352c2.539 0 4.598-1.141 5.996-2.977C17.117-.832 19.043.352 21.406.352c.566 0 1.094-.176 1.488-.352v-4.551zm-10.988-.047c-2.32 0-4.156-1.836-4.156-4.156s1.836-4.16 4.156-4.16a4.16 4.16 0 0 1 4.16 4.16c0 2.32-1.883 4.156-4.16 4.156zm0 0" class="H"/></symbol><symbol id="C" class="G"><path d="M23.461-17.859c-2.492 0-4.418 1.137-5.516 3.063-1.004-1.836-2.758-3.062-4.988-3.062-2.012 0-3.633.961-4.77 2.496v-2.145H2.582V0h5.605v-10.156c0-1.27.785-2.758 2.492-2.758 1.531 0 2.539 1.227 2.539 2.758V0h5.605v-10.156c0-1.27.785-2.758 2.492-2.758 1.535 0 2.582 1.227 2.582 2.758V0h5.563v-11.074c0-4.07-2.145-6.785-6-6.785zm0 0" class="H"/></symbol><symbol id="D" class="G"><path d="M13.176-17.859c-2.012 0-3.676.699-4.988 1.883v-1.488l-5.605-.043v28.012l5.605.047V-1.531C9.5-.352 11.164.352 13.176.352c4.816 0 8.625-4.027 8.625-9.105s-3.809-9.105-8.625-9.105zM12.082-4.598c-2.32 0-4.16-1.836-4.16-4.156a4.13 4.13 0 0 1 4.16-4.16c2.32 0 4.156 1.84 4.156 4.16s-1.836 4.156-4.156 4.156zm0 0" class="H"/></symbol><symbol id="E" class="G"><path d="M10.418.352c5.297 0 8.23-2.758 8.23-7.051v-10.809H13.09v10.066c0 1.664-1.141 2.844-2.672 2.844-1.488 0-2.625-1.18-2.625-2.844v-10.066H2.188v10.809c0 4.293 2.934 7.051 8.23 7.051zm0 0" class="H"/></symbol><symbol id="F" class="G"><path d="M8.23.352c3.938 0 6.348-2.41 6.348-5.691 0-3.504-2.891-4.902-5.387-5.867-1.27-.523-1.883-.785-1.883-1.445 0-.566.438-1.004 1.402-1.004a3.66 3.66 0 0 1 2.715 1.27l2.801-3.152c-1.312-1.313-3.457-2.32-5.91-2.32-3.984 0-6.523 2.625-6.523 5.602 0 3.504 3.504 4.684 5.516 5.43 1.578.613 2.102 1.051 2.102 1.664 0 .699-.613 1.094-1.531 1.094s-2.145-.352-2.934-1.84L.832-3.852C1.883-1.137 5.121.352 8.23.352zm0 0" class="H"/></symbol><symbol id="G" class="G"><path d="M15.016-29.984v14.008c-1.316-1.184-2.977-1.883-4.992-1.883-4.859 0-8.668 4.027-8.668 9.105S5.164.352 10.023.352c2.016 0 3.676-.703 4.992-1.883V.043L20.574 0v-29.984zM11.117-4.598c-2.32 0-4.156-1.836-4.156-4.156s1.836-4.16 4.156-4.16a4.16 4.16 0 0 1 4.16 4.16c0 2.32-1.883 4.156-4.16 4.156zm0 0" class="H"/></symbol><symbol id="H" class="G"><path d="M20.398-8.797c0-5.473-3.766-9.105-9.41-9.105s-9.633 3.676-9.633 9.148S5.297.352 11.164.352c4.855 0 8.098-2.586 8.973-6.391H14.75c-.48 1.398-1.75 2.23-3.676 2.23-2.539 0-3.852-1.531-4.07-4.027h13.395zm-9.324-4.816c1.883 0 2.977.875 3.547 2.406H7.355c.566-1.488 1.75-2.406 3.719-2.406zm0 0" class="H"/></symbol><symbol id="I" class="G"><path d="M21.844 0l-8.316-9.586 7.66-7.922h-6.699l-6.082 6.301v-18.777H2.844V0h5.563v-8.055L14.578 0zm0 0" class="H"/></symbol><clipPath id="J"><path d="M0 22h34v22.875H0zm0 0"/></clipPath><clipPath id="K"><path d="M40 22h34.355v22.875H40zm0 0"/></clipPath></defs><g fill="rgb(100%,100%,100%)"><path d="M55.477 11.582c2.293-.621 4.484-1.68 6.406-3.094a25.2 25.2 0 0 1 .988 7.645 25.75 25.75 0 0 1-.609 5.016c-4.777-.062-9.402 1.223-13.43 3.555.535-3.371.43-6.746-.297-9.992 2.09-1.371 4.414-2.445 6.941-3.129zM34.5 38.273c-2.715-2.656-4.66-5.801-5.887-9.156 3.027 2.664 5.422 6.082 6.863 10.043-.332-.289-.664-.578-.977-.887zm.02 2.418c-2.098-.172-4.164-.594-6.168-1.293-7.855-2.734-13.504-9.023-15.781-16.461 4.91.043 9.621 1.602 13.578 4.289a26.34 26.34 0 0 0 7.109 12.328c.402.398.832.766 1.262 1.137zM27.512 15.93c4.301 3.379 7.379 8.125 8.742 13.406-.437 1.816-.684 3.695-.727 5.602a26.52 26.52 0 0 0-7.805-8.793c-.77-3.355-.848-6.836-.211-10.215zm19.476 9.16c-.059.32-.152.629-.223.945-3.246 2.301-5.996 5.324-7.953 8.902a26.58 26.58 0 0 0-.727-5.605 25.03 25.03 0 0 1 8.863-13.492 24.88 24.88 0 0 1 .039 9.25zm-1.066 3.867a24.43 24.43 0 0 1-7.109 10.355 24.54 24.54 0 0 1 7.109-10.355zm2.41-1.828c3.934-2.633 8.598-4.156 13.457-4.191-1.242 4.102-3.516 7.832-6.684 10.871-4.172 4-9.461 6.371-15.125 6.859 4.121-3.539 7.008-8.23 8.352-13.539zM34.008 3.336c1.289-1.332 2.367-2.828 3.223-4.453.859 1.629 1.938 3.121 3.227 4.453.965.996 1.855 2.094 2.648 3.254a24.83 24.83 0 0 1 3.391 7.355 26.79 26.79 0 0 0-9.324 12.367c-1.801-4.879-5-9.191-9.223-12.301 1.055-3.895 3.07-7.582 6.059-10.676zM12.457 8.488c1.922 1.414 4.113 2.473 6.402 3.094 2.578.695 4.945 1.801 7.07 3.211-.437 1.996-.676 4.047-.648 6.137.02 1.309.16 2.59.363 3.855-3.977-2.332-8.547-3.637-13.281-3.637h-.27a25.22 25.22 0 0 1 .363-12.66zm0 0"/><g clip-path="url(#J)"><path d="M28.305 43.762a24.86 24.86 0 0 1-18.637-4.68A25.07 25.07 0 0 1 0 23.762a19.45 19.45 0 0 0 7.098-.242 24.39 24.39 0 0 1 3.633-.527c2.344 8.172 8.461 15.113 17.039 18.098a26.92 26.92 0 0 0 5.727 1.313c-1.672.637-3.406 1.09-5.191 1.359zm0 0"/></g><g clip-path="url(#K)"><path d="M71.703 30.996c-3.242 5.902-8.574 10.184-15.016 12.051-5.281 1.535-10.793 1.293-15.844-.641 5.797-.656 11.195-3.184 15.488-7.305a26.89 26.89 0 0 0 7.297-12.109 24.65 24.65 0 0 1 3.613.527 19.45 19.45 0 0 0 7.098.242 25.22 25.22 0 0 1-2.637 7.234zm0 0"/></g><use xlink:href="#A" x="78.8" y="33.423"/><use xlink:href="#B" x="105.94" y="33.423"/><use xlink:href="#C" x="128.44" y="33.423"/><use xlink:href="#D" x="159.081" y="33.423"/><use xlink:href="#E" x="181.187" y="33.423"/><use xlink:href="#F" x="201.016" y="33.423"/><use xlink:href="#G" x="215.374" y="33.423"/><use xlink:href="#H" x="237.479" y="33.423"/><use xlink:href="#F" x="258.14" y="33.423"/><use xlink:href="#I" x="272.498" y="33.423"/></g></svg>